# xmcd CD database file
# Copyright (C) 1995-1998 Ti Kan
#
# Track frame offsets:
#	150
#	12110
#	24008
#	41933
#	55695
#	68299
#	82405
#	99297
#	112335
#	122064
#	132571
#	151785
#	167897
#	181409
#
# Disc length: 2567 seconds
#
# Revision: 2
# Processed by: cddbd v1.4PL0 Copyright (c) Steve Scherf et al.
# Submitted via: CDex 1.30Release
#
DISCID=b30a050e
DTITLE=Hayseed Dixie - The Best of Hayseed Dixie
DYEAR=2003
DGENRE=Country
TTITLE0=TNT
TTITLE1=Alabama
TTITLE2=Back in Black
TTITLE3=Centerfold
TTITLE4=Dirty Deeds (Done Dirt Cheap)
TTITLE5=Fat Bottom Girls
TTITLE6=Feel Like Makin Love
TTITLE7=Have a drink on me
TTITLE8=I Love Rock N Roll
TTITLE9=Money Talks
TTITLE10=Walk This Way
TTITLE11=Shook me all night long
TTITLE12=Hells Bells
TTITLE13=Highway to Hell
EXTD=YEAR: 2003 ID3G:   2
EXTT0=
EXTT1=
EXTT2=
EXTT3=
EXTT4=
EXTT5=
EXTT6=
EXTT7=
EXTT8=
EXTT9=
EXTT10=
EXTT11=
EXTT12=
EXTT13=
PLAYORDER=
